# Blender 4.3.0
# www.blender.org
mtllib chair.mtl
o Cube
v 0.385785 0.222065 -0.310778
v 0.350000 2.100000 -0.350000
v 0.398730 0.361272 -0.553567
v 0.350000 2.100000 -0.650000
v 0.675559 0.153090 -0.346466
v 0.650000 2.100000 -0.350000
v 0.682367 0.277825 -0.604426
v 0.650000 2.100000 -0.650000
v 0.317633 0.172175 -0.695574
v 0.321083 0.010128 -0.426520
v 0.601270 0.088728 -0.746432
v 0.610856 -0.058848 -0.462207
v -0.385785 0.222065 -0.310778
v -0.350000 2.100000 -0.350000
v -0.398730 0.361272 -0.553567
v -0.350000 2.100000 -0.650000
v -0.675559 0.153090 -0.346466
v -0.650000 2.100000 -0.350000
v -0.682367 0.277825 -0.604426
v -0.650000 2.100000 -0.650000
v -0.317633 0.172175 -0.695574
v -0.321083 0.010128 -0.426520
v -0.601270 0.088728 -0.746432
v -0.610856 -0.058848 -0.462207
v 0.385785 0.222065 0.310778
v 0.350000 2.100000 0.350000
v 0.398730 0.361272 0.553567
v 0.350000 2.100000 0.650000
v 0.675559 0.153090 0.346466
v 0.650000 2.100000 0.350000
v 0.682367 0.277825 0.604426
v 0.650000 2.100000 0.650000
v 0.317633 0.172175 0.695574
v 0.321083 0.010128 0.426520
v 0.601270 0.088728 0.746432
v 0.610856 -0.058848 0.462207
v -0.385785 0.222065 0.310778
v -0.350000 2.100000 0.350000
v -0.398730 0.361272 0.553567
v -0.350000 2.100000 0.650000
v -0.675559 0.153090 0.346466
v -0.650000 2.100000 0.350000
v -0.682367 0.277825 0.604426
v -0.650000 2.100000 0.650000
v -0.317633 0.172175 0.695574
v -0.321083 0.010128 0.426520
v -0.601270 0.088728 0.746432
v -0.610856 -0.058848 0.462207
vn -0.9977 -0.0204 -0.0649
vn -0.1844 -0.0278 -0.9825
vn 0.9994 0.0132 0.0327
vn 0.1230 0.0034 0.9924
vn 0.0298 0.5920 -0.8054
vn -0.0000 1.0000 -0.0000
vn -0.2584 -0.8290 -0.4960
vn -0.9652 0.2458 0.0895
vn 0.9456 -0.2745 -0.1744
vn -0.0056 -0.4780 0.8784
vn -0.9996 -0.0280 -0.0000
vn -0.0000 -0.0554 -0.9985
vn 0.9998 0.0178 -0.0000
vn -0.0000 0.0209 0.9998
vn -0.3248 -0.8438 -0.4272
vn -0.9457 0.2730 0.1765
vn 0.9653 -0.2441 -0.0926
vn 0.9977 -0.0204 -0.0649
vn 0.1844 -0.0278 -0.9825
vn -0.9994 0.0132 0.0327
vn -0.1230 0.0034 0.9924
vn -0.0298 0.5920 -0.8054
vn 0.2584 -0.8290 -0.4960
vn 0.9652 0.2458 0.0895
vn -0.9456 -0.2745 -0.1744
vn 0.0056 -0.4780 0.8784
vn 0.9996 -0.0280 -0.0000
vn -0.9998 0.0178 -0.0000
vn 0.3248 -0.8438 -0.4272
vn 0.9457 0.2730 0.1765
vn -0.9653 -0.2441 -0.0926
vn -0.9977 -0.0204 0.0649
vn -0.1844 -0.0278 0.9825
vn 0.9994 0.0132 -0.0327
vn 0.1230 0.0034 -0.9924
vn 0.0298 0.5920 0.8054
vn -0.2584 -0.8290 0.4960
vn -0.9652 0.2458 -0.0895
vn 0.9456 -0.2745 0.1744
vn -0.0056 -0.4780 -0.8784
vn -0.0000 -0.0554 0.9985
vn -0.0000 0.0209 -0.9998
vn -0.3248 -0.8438 0.4272
vn -0.9457 0.2730 -0.1765
vn 0.9653 -0.2441 0.0926
vn 0.9977 -0.0204 0.0649
vn 0.1844 -0.0278 0.9825
vn -0.9994 0.0132 -0.0327
vn -0.1230 0.0034 -0.9924
vn -0.0298 0.5920 0.8054
vn 0.2584 -0.8290 0.4960
vn 0.9652 0.2458 -0.0895
vn -0.9456 -0.2745 0.1744
vn 0.0056 -0.4780 -0.8784
vn 0.3248 -0.8438 0.4272
vn 0.9457 0.2730 -0.1765
vn -0.9653 -0.2441 0.0926
vt 0.625000 0.000000
vt 0.375000 0.250000
vt 0.375000 0.000000
vt 0.625000 0.500000
vt 0.375000 0.500000
vt 0.625000 0.750000
vt 0.375000 0.750000
vt 0.375000 1.000000
vt 0.875000 0.500000
vt 0.125000 0.500000
vt 0.125000 0.750000
vt 0.625000 0.250000
vt 0.625000 1.000000
vt 0.875000 0.750000
s 0
f 2/1/1 3/2/1 1/3/1
f 3/2/2 8/4/2 7/5/2
f 7/5/3 6/6/3 5/7/3
f 6/6/4 1/8/4 5/7/4
f 3/2/5 11/5/5 9/2/5
f 4/9/6 6/6/6 8/4/6
f 9/10/7 12/7/7 10/11/7
f 3/2/8 10/3/8 1/3/8
f 7/5/9 12/7/9 11/5/9
f 1/8/10 12/7/10 5/7/10
f 2/1/11 4/12/11 3/2/11
f 3/2/12 4/12/12 8/4/12
f 7/5/13 8/4/13 6/6/13
f 6/6/14 2/13/14 1/8/14
f 3/2/5 7/5/5 11/5/5
f 4/9/6 2/14/6 6/6/6
f 9/10/15 11/5/15 12/7/15
f 3/2/16 9/2/16 10/3/16
f 7/5/17 5/7/17 12/7/17
f 1/8/10 10/8/10 12/7/10
f 14/1/18 13/3/18 15/2/18
f 15/2/19 19/5/19 20/4/19
f 19/5/20 17/7/20 18/6/20
f 18/6/21 17/7/21 13/8/21
f 15/2/22 21/2/22 23/5/22
f 16/9/6 20/4/6 18/6/6
f 21/10/23 22/11/23 24/7/23
f 15/2/24 13/3/24 22/3/24
f 19/5/25 23/5/25 24/7/25
f 13/8/26 17/7/26 24/7/26
f 14/1/27 15/2/27 16/12/27
f 15/2/12 20/4/12 16/12/12
f 19/5/28 18/6/28 20/4/28
f 18/6/14 13/8/14 14/13/14
f 15/2/22 23/5/22 19/5/22
f 16/9/6 18/6/6 14/14/6
f 21/10/29 24/7/29 23/5/29
f 15/2/30 22/3/30 21/2/30
f 19/5/31 24/7/31 17/7/31
f 13/8/26 24/7/26 22/8/26
f 26/1/32 25/3/32 27/2/32
f 27/2/33 31/5/33 32/4/33
f 31/5/34 29/7/34 30/6/34
f 30/6/35 29/7/35 25/8/35
f 27/2/36 33/2/36 35/5/36
f 28/9/6 32/4/6 30/6/6
f 33/10/37 34/11/37 36/7/37
f 27/2/38 25/3/38 34/3/38
f 31/5/39 35/5/39 36/7/39
f 25/8/40 29/7/40 36/7/40
f 26/1/11 27/2/11 28/12/11
f 27/2/41 32/4/41 28/12/41
f 31/5/13 30/6/13 32/4/13
f 30/6/42 25/8/42 26/13/42
f 27/2/36 35/5/36 31/5/36
f 28/9/6 30/6/6 26/14/6
f 33/10/43 36/7/43 35/5/43
f 27/2/44 34/3/44 33/2/44
f 31/5/45 36/7/45 29/7/45
f 25/8/40 36/7/40 34/8/40
f 38/1/46 39/2/46 37/3/46
f 39/2/47 44/4/47 43/5/47
f 43/5/48 42/6/48 41/7/48
f 42/6/49 37/8/49 41/7/49
f 39/2/50 47/5/50 45/2/50
f 40/9/6 42/6/6 44/4/6
f 45/10/51 48/7/51 46/11/51
f 39/2/52 46/3/52 37/3/52
f 43/5/53 48/7/53 47/5/53
f 37/8/54 48/7/54 41/7/54
f 38/1/27 40/12/27 39/2/27
f 39/2/41 40/12/41 44/4/41
f 43/5/28 44/4/28 42/6/28
f 42/6/42 38/13/42 37/8/42
f 39/2/50 43/5/50 47/5/50
f 40/9/6 38/14/6 42/6/6
f 45/10/55 47/5/55 48/7/55
f 39/2/56 45/2/56 46/3/56
f 43/5/57 41/7/57 48/7/57
f 37/8/54 46/8/54 48/7/54
o Cube.001
v -0.750000 2.090245 1.000000
v -0.750000 2.340245 1.000000
v -0.750000 2.090245 -1.000000
v -0.750000 2.340245 -1.000000
v 1.000000 2.074142 1.128818
v 1.000000 2.356347 1.128818
v 1.000000 2.074142 -1.128818
v 1.000000 2.356347 -1.128818
v -1.000000 2.090245 -1.000000
v -1.000000 2.090245 1.000000
v -1.000000 2.340245 1.000000
v -1.000000 2.340245 -1.000000
v -0.767658 4.340244 0.858738
v -0.767658 4.340244 -0.858738
v -0.982342 4.340244 0.858738
v -0.982342 4.340244 -0.858738
vn -0.0000 -0.0000 -1.0000
vn -0.0734 -0.0000 -0.9973
vn 1.0000 -0.0000 -0.0000
vn -0.0734 -0.0000 0.9973
vn -0.0092 -1.0000 -0.0000
vn -0.0092 1.0000 -0.0000
vn -1.0000 -0.0000 -0.0000
vn -0.0000 -0.0000 1.0000
vn -1.0000 0.0088 -0.0000
vn -0.0000 -1.0000 -0.0000
vn -0.0000 1.0000 -0.0000
vn -0.0000 0.0705 -0.9975
vn 1.0000 0.0088 -0.0000
vn -0.0000 0.0705 0.9975
vt 0.375000 0.250000
vt 0.625000 0.250000
vt 0.625000 0.500000
vt 0.375000 0.500000
vt 0.375000 0.750000
vt 0.625000 0.750000
vt 0.375000 1.000000
vt 0.125000 0.750000
vt 0.125000 0.500000
vt 0.875000 0.500000
vt 0.625000 0.000000
vt 0.375000 0.000000
vt 0.625000 1.000000
vt 0.875000 0.750000
s 0
f 51/15/58 60/16/58 52/16/58
f 51/15/59 56/17/59 55/18/59
f 56/17/60 53/19/60 55/18/60
f 54/20/61 49/21/61 53/19/61
f 55/18/62 49/22/62 51/23/62
f 52/24/63 54/20/63 56/17/63
f 59/25/64 57/15/64 58/26/64
f 50/27/65 58/21/65 49/21/65
f 59/25/66 64/16/66 60/16/66
f 49/22/67 57/23/67 51/23/67
f 62/24/68 63/28/68 61/28/68
f 60/16/69 62/16/69 52/16/69
f 52/24/70 61/28/70 50/28/70
f 50/27/71 63/27/71 59/27/71
f 51/15/58 57/15/58 60/16/58
f 51/15/59 52/16/59 56/17/59
f 56/17/60 54/20/60 53/19/60
f 54/20/61 50/27/61 49/21/61
f 55/18/62 53/19/62 49/22/62
f 52/24/63 50/28/63 54/20/63
f 59/25/64 60/16/64 57/15/64
f 50/27/65 59/27/65 58/21/65
f 59/25/66 63/25/66 64/16/66
f 49/22/67 58/22/67 57/23/67
f 62/24/68 64/24/68 63/28/68
f 60/16/69 64/16/69 62/16/69
f 52/24/70 62/24/70 61/28/70
f 50/27/71 61/27/71 63/27/71
